<?xml version="1.0" encoding="UTF-8" standalone="no"?>
<!-- Created with Inkscape (http://www.inkscape.org/) -->

<svg
   version="1.1"
   id="svg1"
   width="615"
   height="615"
   viewBox="0 0 615 615"
   sodipodi:docname="kissweblogo_quadrado_contorno.svg"
   inkscape:export-filename="kissweblogo.png"
   inkscape:export-xdpi="96"
   inkscape:export-ydpi="96"
   inkscape:version="1.3 (0e150ed6c4, 2023-07-21)"
   xmlns:inkscape="http://www.inkscape.org/namespaces/inkscape"
   xmlns:sodipodi="http://sodipodi.sourceforge.net/DTD/sodipodi-0.dtd"
   xmlns="http://www.w3.org/2000/svg"
   xmlns:svg="http://www.w3.org/2000/svg">
  <defs
     id="defs1" />
  <sodipodi:namedview
     id="namedview1"
     pagecolor="#ffffff"
     bordercolor="#cccccc"
     borderopacity="1"
     inkscape:showpageshadow="0"
     inkscape:pageopacity="1"
     inkscape:pagecheckerboard="0"
     inkscape:deskcolor="#d1d1d1"
     showgrid="false"
     inkscape:zoom="1.0406693"
     inkscape:cx="240.71047"
     inkscape:cy="264.73347"
     inkscape:window-width="1920"
     inkscape:window-height="1017"
     inkscape:window-x="-8"
     inkscape:window-y="-8"
     inkscape:window-maximized="1"
     inkscape:current-layer="g1"
     inkscape:export-bgcolor="#ffffff00" />
  <g
     inkscape:groupmode="layer"
     inkscape:label="Image"
     id="g1">
    <path
       style="fill:none;fill-opacity:1;stroke:#ff4d6d;stroke-width:12.846;stroke-dasharray:none;stroke-opacity:1"
       d="M 184.90551,510.22693 C 153.67288,504.65546 124.54143,483.44565 102.7113,450.38361 96.325124,440.71165 87.648216,425.75542 83.256541,416.84981 63.227649,376.23438 49.428667,354.50286 30.585354,333.89983 24.345462,327.07724 19.240096,321.00157 19.240096,320.39837 c 0,-0.60318 0.819891,-1.94606 1.821981,-2.98415 1.714194,-1.7758 2.373913,-1.72331 11.15165,0.88734 18.852822,5.60716 39.077234,6.36275 61.304772,2.29042 15.114851,-2.76919 26.075671,-1.97215 34.210451,2.48773 11.72945,6.43064 17.38252,14.49527 30.63189,43.69923 13.39397,29.52273 20.00227,39.24449 30.70914,45.17756 3.44665,1.90991 5.45695,2.27073 10.01543,1.79757 10.71044,-1.11172 19.72038,-11.04122 33.73772,-37.18105 12.67393,-23.6346 24.88638,-40.30459 35.64812,-48.65973 13.52362,-10.49941 23.23946,-13.92723 39.58376,-13.96555 10.34284,-0.0243 12.75102,0.35616 20.38305,3.21952 19.09722,7.16485 34.95896,24.18139 52.11181,55.90573 12.68533,23.46166 21.08597,34.70606 29.00306,38.82105 15.91708,8.27312 30.14548,-5.35673 47.38347,-45.39019 10.56409,-24.53401 20.23865,-38.14464 31.23153,-43.93801 7.25677,-3.82438 19.04589,-4.52666 33.44396,-1.99224 23.24908,4.09245 43.38963,3.34911 61.4431,-2.26768 5.03442,-1.56631 9.76247,-2.58031 10.50681,-2.25336 0.74435,0.32696 1.35336,2.06466 1.35336,3.86157 0,2.68268 -1.44536,4.74022 -8.08046,11.5028 -17.67524,18.01487 -26.48664,31.28157 -48.56854,73.12609 -8.7675,16.61417 -19.14031,35.24218 -23.05069,41.39557 -21.39152,33.66184 -45.43947,53.28169 -76.28438,62.2376 -12.21936,3.54795 -34.24157,3.62164 -46.33297,0.15503 -25.34869,-7.26743 -43.33672,-21.94206 -62.08046,-50.64525 -13.9365,-21.34163 -16.94931,-24.59303 -22.80054,-24.60622 -1.79851,-0.005 -4.58894,0.87368 -6.20094,1.95053 -2.55515,1.70687 -9.79687,11.27516 -15.94085,21.06222 -13.92517,22.1821 -26.62481,34.8797 -44.72808,44.7209 -15.09156,8.20398 -39.60165,12.32837 -55.94174,9.41351 z M 45.36893,300.95559 c -8.207193,-1.3753 -24.591394,-6.2763 -30.17703,-9.02688 -5.436336,-2.67704 -7.6803285,-5.61689 -7.6803285,-10.06197 0,-3.66675 3.1801795,-6.78536 9.5858715,-9.40025 27.172126,-11.09211 48.523573,-30.19153 79.355437,-70.98556 31.02066,-41.04381 59.13562,-68.49598 85.86129,-83.8372 19.38646,-11.12834 38.42689,-15.64553 57.06912,-13.53924 17.14999,1.93768 27.64281,7.31523 47.43051,24.30797 20.55519,17.65186 22.27905,17.5241 45.81811,-3.39533 9.935,-8.82936 21.10536,-15.54651 31.1889,-18.75504 11.52739,-3.66796 31.36316,-3.4126 44.83736,0.57724 10.575,3.13134 29.01112,12.78291 40.13913,21.01335 19.34412,14.30722 41.28271,36.84911 62.75049,64.47609 41.78947,53.77905 56.30949,67.15533 87.04679,80.19002 7.6399,3.23984 9.32437,5.30817 8.84069,10.85527 -0.40176,4.60769 -3.36424,6.97013 -13.68765,10.91531 -16.58695,6.33885 -22.80658,7.3241 -46.23524,7.3241 -22.89359,0 -28.0905,-0.75928 -46.88409,-6.84979 -11.81361,-3.82849 -23.79752,-9.41229 -46.069,-21.46543 -21.82747,-11.8128 -32.67,-16.40541 -44.13362,-18.69376 -10.48185,-2.09236 -16.65458,-2.09209 -26.21206,9.7e-4 -9.30216,2.03734 -16.79298,5.97453 -31.55608,16.58594 -19.45333,13.98277 -28.63042,17.55574 -45.09122,17.55574 -16.48731,0 -26.3207,-3.94959 -47.57276,-19.10757 -13.99918,-9.98487 -19.8759,-13.01941 -29.14515,-15.04953 -19.3711,-4.24259 -35.66269,-0.0422 -68.42256,17.64102 -44.20835,23.86293 -64.014063,30.05663 -95.29427,29.80074 -8.869697,-0.0727 -18.662884,-0.55692 -21.76264,-1.07635 z"
       id="path2" />
  </g>
</svg>
