<?xml version="1.0" encoding="UTF-8" standalone="no"?>
<!-- Created with Inkscape (http://www.inkscape.org/) -->

<svg
   version="1.1"
   id="svg1"
   width="619"
   height="367"
   viewBox="0 0 619 367"
   sodipodi:docname="kissweblogo.svg"
   inkscape:export-filename="kissweblogo.png"
   inkscape:export-xdpi="96"
   inkscape:export-ydpi="96"
   inkscape:version="1.3 (0e150ed6c4, 2023-07-21)"
   xmlns:inkscape="http://www.inkscape.org/namespaces/inkscape"
   xmlns:sodipodi="http://sodipodi.sourceforge.net/DTD/sodipodi-0.dtd"
   xmlns="http://www.w3.org/2000/svg"
   xmlns:svg="http://www.w3.org/2000/svg">
  <defs
     id="defs1" />
  <sodipodi:namedview
     id="namedview1"
     pagecolor="#ffffff"
     bordercolor="#cccccc"
     borderopacity="1"
     inkscape:showpageshadow="0"
     inkscape:pageopacity="1"
     inkscape:pagecheckerboard="0"
     inkscape:deskcolor="#d1d1d1"
     showgrid="false"
     inkscape:zoom="1.4717286"
     inkscape:cx="309.5"
     inkscape:cy="129.43963"
     inkscape:window-width="1920"
     inkscape:window-height="1017"
     inkscape:window-x="-8"
     inkscape:window-y="-8"
     inkscape:window-maximized="1"
     inkscape:current-layer="g1"
     inkscape:export-bgcolor="#ffffff00" />
  <g
     inkscape:groupmode="layer"
     inkscape:label="Image"
     id="g1">
    <path
       style="fill:#ff4d6d;fill-opacity:1"
       d="M 182.14105,365.64138 C 150.1855,360.6615 120.37975,341.70385 98.044335,312.15249 91.510342,303.50755 82.632593,290.13945 78.139265,282.17947 57.64677,245.87678 43.528389,226.45282 24.248917,208.03752 17.864592,201.93937 12.641054,196.50885 12.641054,195.9697 c 0,-0.53914 0.838869,-1.73942 1.864153,-2.66729 1.753873,-1.58723 2.428862,-1.54031 11.409774,0.79312 19.289202,5.01176 39.981741,5.68714 62.723772,2.04723 15.464697,-2.47516 26.679227,-1.76275 35.002297,2.22356 12.00094,5.7478 17.78487,12.9561 31.34091,39.05905 13.704,26.38786 20.46526,35.07731 31.41996,40.38038 3.52643,1.70712 5.58325,2.02962 10.24724,1.6067 10.95836,-0.99367 20.17684,-9.86881 34.51864,-33.23298 12.96729,-21.12497 25.46241,-36.02488 36.47325,-43.49283 13.83665,-9.38452 23.77738,-12.44837 40.5,-12.48261 10.58224,-0.0217 13.04617,0.31833 20.85486,2.87765 19.53925,6.40406 35.76814,21.6137 53.31801,49.9694 12.97895,20.97039 21.57405,31.02081 29.67438,34.69886 16.28551,7.39463 30.84325,-4.78794 48.48025,-40.57047 10.8086,-21.92886 20.7071,-34.09425 31.95443,-39.27245 7.42475,-3.4183 19.48675,-4.04601 34.21807,-1.7807 23.78723,3.65789 44.39397,2.99349 62.86532,-2.02689 5.15093,-1.39999 9.98843,-2.30632 10.75,-2.01408 0.76157,0.29224 1.38468,1.84543 1.38468,3.45152 0,2.39783 -1.47882,4.23689 -8.2675,10.28139 -18.08437,16.10196 -27.09972,27.95993 -49.69273,65.36121 -8.97044,14.85 -19.58335,31.5 -23.58424,37 -21.88666,30.08747 -46.49124,47.62399 -78.05011,55.62893 -12.50219,3.1712 -35.03414,3.23706 -47.40542,0.13858 -25.93542,-6.49574 -44.33982,-19.61216 -63.51742,-45.26751 -14.25908,-19.07547 -17.34162,-21.98162 -23.32829,-21.99341 -1.84014,-0.004 -4.69515,0.78091 -6.34448,1.74341 -2.61428,1.52562 -10.02362,10.07791 -16.30981,18.82573 -14.24749,19.82671 -27.24108,31.17601 -45.7634,39.97223 -15.44088,7.33284 -40.51829,11.01929 -57.2366,8.41395 z M 39.374683,178.59145 c -8.397162,-1.22927 -25.160603,-5.60987 -30.8755277,-8.06837 -5.5621682,-2.39278 -7.85810151,-5.02046 -7.85810151,-8.99354 0,-3.2774 3.25379011,-6.06485 9.80775221,-8.40209 27.801069,-9.91429 49.64673,-26.98566 81.192248,-63.447978 31.738676,-36.68559 60.504406,-61.22277 87.848676,-74.93498 19.8352,-9.94667 39.31634,-13.98420997 58.39009,-12.10158 17.54694,1.73193 28.28264,6.53846 48.52835,21.72683 21.03098,15.7775 22.79474,15.66332 46.87866,-3.03479 10.16496,-7.89181 21.59387,-13.8957 31.91081,-16.76354 11.79421,-3.27849 32.08912,-3.05024 45.8752,0.51594 10.81977,2.79885 29.68263,11.42556 41.06821,18.78206 19.79187,12.78801 42.23827,32.9363 64.20296,57.62972 42.75675,48.068538 57.61287,60.024458 89.06163,71.675068 7.81673,2.89582 9.5402,4.74452 9.04532,9.7026 -0.41107,4.11843 -3.44211,6.23001 -14.00447,9.75628 -16.97089,5.66576 -23.33448,6.54639 -47.30544,6.54639 -23.42349,0 -28.7407,-0.67865 -47.96929,-6.12245 -12.08705,-3.42197 -24.34835,-8.41284 -47.13536,-19.18612 -22.33269,-10.55848 -33.4262,-14.66342 -45.15516,-16.70878 -10.72446,-1.87018 -17.04007,-1.86994 -26.81878,0.001 -9.51747,1.82099 -17.18168,5.34011 -32.28648,14.82477 -19.90363,12.498 -29.29313,15.69158 -46.13493,15.69158 -16.86895,0 -26.92995,-3.53019 -48.67392,-17.07863 -14.32321,-8.92464 -20.33597,-11.63696 -29.81976,-13.45151 -19.81947,-3.79209 -36.48816,-0.0377 -70.00632,15.76782 -45.23162,21.32905 -65.495756,26.86508 -97.499996,26.63636 -9.075,-0.0649 -19.094867,-0.49779 -22.266371,-0.96206 z"
       id="path1" />
  </g>
</svg>
